<svg width="20" height="14" viewBox="0 0 20 14" fill="none" xmlns="http://www.w3.org/2000/svg">
<path d="M1.11111 13.3521H18.8889C19.5 13.3521 20 12.8521 20 12.241C20 11.6299 19.5 11.1299 18.8889 11.1299H1.11111C0.5 11.1299 0 11.6299 0 12.241C0 12.8521 0.5 13.3521 1.11111 13.3521ZM1.11111 7.79658H18.8889C19.5 7.79658 20 7.29658 20 6.68546C20 6.07435 19.5 5.57435 18.8889 5.57435H1.11111C0.5 5.57435 0 6.07435 0 6.68546C0 7.29658 0.5 7.79658 1.11111 7.79658ZM0 1.12991C0 1.74102 0.5 2.24102 1.11111 2.24102H18.8889C19.5 2.24102 20 1.74102 20 1.12991C20 0.518799 19.5 0.0187988 18.8889 0.0187988H1.11111C0.5 0.0187988 0 0.518799 0 1.12991Z" fill="#0099D6"/>
</svg>
